HIERARCHY
ROOT SpineBase
{
  OFFSET 0.000000 0.000000 0.000000
  CHANNELS 6 Xposition Yposition Zposition Zrotation Xrotation Yrotation
  JOINT SpineMid
  {
    OFFSET 0.000000 29.944640 0.000000
    CHANNELS 3 Zrotation Xrotation Yrotation
    JOINT SpineShoulder
    {
      OFFSET -0.037757 22.315883 -0.699318
      CHANNELS 3 Zrotation Xrotation Yrotation
      JOINT Neck
      {
        OFFSET -0.025799 7.413530 -0.542276
        CHANNELS 3 Zrotation Xrotation Yrotation
        JOINT Head
        {
          OFFSET 3.293847 13.718364 -1.668537
          CHANNELS 3 Zrotation Xrotation Yrotation
          End Site
          {
            OFFSET 0 0 0
          }
        }
      }
      JOINT ShoulderLeft
      {
        OFFSET -15.155380 -2.034994 -6.419123
        CHANNELS 3 Zrotation Xrotation Yrotation
        JOINT ElbowLeft
        {
          OFFSET -6.496690 -23.176153 -2.518803
          CHANNELS 3 Zrotation Xrotation Yrotation
          JOINT WristLeft
          {
            OFFSET 0.125062 -19.181776 -6.430896
            CHANNELS 3 Zrotation Xrotation Yrotation
            JOINT HandLeft
            {
              OFFSET -0.958861 -6.788733 -1.572567
              CHANNELS 3 Zrotation Xrotation Yrotation
              JOINT HandTipLeft
              {
                OFFSET 1.703155 -6.258232 -0.158203
                CHANNELS 3 Zrotation Xrotation Yrotation
                End Site
                {
                  OFFSET 0 0 0
                }
              }
              JOINT ThumbLeft
              {
                OFFSET 2.766305 1.486266 -0.059776
                CHANNELS 3 Zrotation Xrotation Yrotation
                End Site
                {
                  OFFSET 0 0 0
                }
              }
            }
          }
        }
      }
      JOINT ShoulderRight
      {
        OFFSET 16.020918 -4.378614 3.889041
        CHANNELS 3 Zrotation Xrotation Yrotation
        JOINT ElbowRight
        {
          OFFSET 3.243719 -24.434260 3.315164
          CHANNELS 3 Zrotation Xrotation Yrotation
          JOINT WristRight
          {
            OFFSET 4.790168 -21.510497 -9.242290
            CHANNELS 3 Zrotation Xrotation Yrotation
            JOINT HandRight
            {
              OFFSET 0.706482 -3.553679 -0.814297
              CHANNELS 3 Zrotation Xrotation Yrotation
              JOINT HandTipRight
              {
                OFFSET 3.341169 -5.727799 -1.753514
                CHANNELS 3 Zrotation Xrotation Yrotation
                End Site
                {
                  OFFSET 0 0 0
                }
              }
              JOINT ThumbRight
              {
                OFFSET -1.630104 -0.474781 -1.996445
                CHANNELS 3 Zrotation Xrotation Yrotation
                End Site
                {
                  OFFSET 0 0 0
                }
              }
            }
          }
        }
      }
    }
  }
  JOINT HipLeft
  {
    OFFSET -7.233343 1.417966 -4.758521
    CHANNELS 3 Zrotation Xrotation Yrotation
    JOINT KneeLeft
    {
      OFFSET -5.408501 -27.891167 -0.277252
      CHANNELS 3 Zrotation Xrotation Yrotation
      JOINT AnkleLeft
      {
        OFFSET -4.270297 -34.895418 8.190101
        CHANNELS 3 Zrotation Xrotation Yrotation
        JOINT FootLeft
        {
          OFFSET -0.460322 -6.336476 -6.987684
          CHANNELS 3 Zrotation Xrotation Yrotation
          End Site
          {
            OFFSET 0 0 0
          }
        }
      }
    }
  }
  JOINT HipRight
  {
    OFFSET 6.758716 0.715396 -1.886145
    CHANNELS 3 Zrotation Xrotation Yrotation
    JOINT KneeRight
    {
      OFFSET -1.628078 -29.764224 2.292680
      CHANNELS 3 Zrotation Xrotation Yrotation
      JOINT AnkleRight
      {
        OFFSET -4.170856 -35.596290 5.635716
        CHANNELS 3 Zrotation Xrotation Yrotation
        JOINT FootRight
        {
          OFFSET 0.761896 -4.297510 -8.001552
          CHANNELS 3 Zrotation Xrotation Yrotation
          End Site
          {
            OFFSET 0 0 0
          }
        }
      }
    }
  }
}
MOTION
Frames: 5
Frame Time: 0.033333
25.240838 72.735720 326.904145 1.311145 -3.072856 -26.945921 0.055971 -0.121958 27.018258 0.042479 -0.032919 0.050859 -16.055807 6.938125 -1.378280 0.000000 0.000000 0.000000 -3.675383 6.371066 -0.473765 5.481209 -7.205129 -0.098796 14.422597 -2.293733 -2.345364 -18.945849 0.941263 2.978362 0.000000 0.000000 0.000000 0.000000 0.000000 0.000000 8.229222 -38.205157 -1.309905 18.695514 -53.898744 -47.473851 16.825318 0.477551 -0.960701 -17.168768 16.992359 -25.122721 0.000000 0.000000 0.000000 0.000000 0.000000 0.000000 -4.072939 -5.687396 28.243055 3.708102 1.834324 -1.196422 26.964931 27.742352 -30.315663 0.000000 0.000000 0.000000 -0.856385 10.031188 26.897373 1.041445 -4.307603 0.987401 2.523313 4.768145 -14.183978 0.000000 0.000000 0.000000
25.865173 72.658578 326.863336 1.237390 -3.291100 -26.853498 0.060096 -0.150312 26.923699 0.043998 -0.050942 0.047047 -15.824561 7.109796 -1.290780 0.000000 0.000000 0.000000 -3.150646 6.962826 -0.629062 6.017354 -7.992557 -0.162366 15.425376 -3.744531 -2.015521 -21.695164 3.311914 3.877585 0.000000 0.000000 0.000000 0.000000 0.000000 0.000000 13.458160 -41.592257 0.866118 11.719048 -49.346139 -44.691503 16.669680 0.457363 -3.088374 -20.222587 14.646881 -20.227615 0.000000 0.000000 0.000000 0.000000 0.000000 0.000000 -4.007310 -5.529410 28.186569 2.866785 2.052035 -1.352294 21.859858 23.538328 -23.622337 0.000000 0.000000 0.000000 -0.983799 9.504081 26.826196 0.743488 -3.248908 0.719935 -0.037672 -0.915979 -9.951699 0.000000 0.000000 0.000000
26.342059 72.591029 326.821875 1.093052 -3.491105 -26.933387 0.043602 -0.201252 26.996575 0.034025 -0.071699 0.038551 -15.681379 7.101115 -1.186962 0.000000 0.000000 0.000000 -2.544896 7.680812 -0.815901 6.916047 -9.118417 -0.223649 16.784791 -3.066290 -2.420993 -24.691214 3.274192 4.755690 0.000000 0.000000 0.000000 0.000000 0.000000 0.000000 18.262798 -44.127840 3.049451 6.339970 -44.479201 -40.617070 17.658563 0.277797 -6.754760 -21.936798 13.628057 -16.995779 0.000000 0.000000 0.000000 0.000000 0.000000 0.000000 -3.734343 -5.411266 28.318484 2.023921 2.486824 -1.515111 18.153032 19.373568 -18.443974 0.000000 0.000000 0.000000 -0.987397 9.094321 26.921316 0.458916 -2.279215 0.495256 -2.733524 -7.536636 -5.527770 0.000000 0.000000 0.000000
26.650980 72.499741 326.803809 0.895679 -3.700871 -27.094529 0.029540 -0.248868 27.146804 0.027873 -0.088214 0.028039 -15.702216 7.140976 -1.090664 0.000000 0.000000 0.000000 -1.741498 8.493564 -1.066674 7.877327 -10.419521 -0.237735 17.797330 -1.571980 -3.062690 -25.257026 3.026286 5.350479 0.000000 0.000000 0.000000 0.000000 0.000000 0.000000 21.959795 -45.698818 4.782914 3.644470 -40.692390 -38.113734 16.905988 0.640929 -6.391900 -19.118130 15.192815 -19.378802 0.000000 0.000000 0.000000 0.000000 0.000000 0.000000 -3.326907 -5.253150 28.535119 1.303367 3.070797 -1.651506 15.803060 15.982671 -14.961109 0.000000 0.000000 0.000000 -0.943016 8.891837 27.089843 0.287742 -1.475589 0.333297 -5.211655 -14.616049 -1.509612 0.000000 0.000000 0.000000
26.814175 72.397736 326.815340 0.670583 -3.856069 -27.071672 0.016988 -0.286717 27.110097 0.025757 -0.098212 0.016856 -15.835860 6.906037 -0.993347 0.000000 0.000000 0.000000 -1.055209 9.198969 -1.288750 9.169568 -11.629546 -0.272865 18.924511 -0.706780 -3.558177 -28.455251 1.954199 5.990031 0.000000 0.000000 0.000000 0.000000 0.000000 0.000000 24.034282 -46.409312 5.710655 1.415940 -35.981556 -34.369210 18.583954 -1.044679 -8.809251 -21.640456 13.830928 -15.228275 0.000000 0.000000 0.000000 0.000000 0.000000 0.000000 -2.999927 -5.120310 28.549227 0.854807 3.447699 -1.739772 14.695608 14.154046 -13.169562 0.000000 0.000000 0.000000 -0.959804 8.786174 27.066529 0.351119 -1.005725 0.260800 -6.933282 -19.666425 1.523753 0.000000 0.000000 0.000000
